<?xml version="1.0" standalone="no"?> <!DOCTYPE svg PUBLIC "-//W3C//DTD SVG 1.0//EN" "http://www.w3.org/TR/2001/REC-SVG-20010904/DTD/svg10.dtd" > <svg xmlns="http://www.w3.org/2000/svg" width="100%" height="100%">
<defs >
<font horiz-adv-x="551" ><font-face
    font-family="Minion Pro Med"
    units-per-em="1000"
    panose-1="2 4 5 3 5 3 6 9 2 3"
    ascent="727"
    descent="-273"
    alphabetic="0" />
<missing-glyph horiz-adv-x="500" d="M0 0V700H500V0H0ZM250 395L420 650H80L250 395ZM280 350L450 95V605L280 350ZM80 50H420L250 305L80 50ZM50 605V95L220 350L50 605Z" />
<glyph unicode=" " glyph-name="space" horiz-adv-x="227" />
<glyph unicode="!" glyph-name="exclam" horiz-adv-x="261" d="M224 664Q254 664 266 656T276 632Q275 624 254 554L152 200Q148 194 134 194T119 200Q124 259 135 376T151 553Q157 618 160 634Q166 664 224 664ZM101 -12Q77 -12 62 4T47 46Q47 77 65 96T112 116Q136
116 151 99T166 56Q166 25 147 7T101 -12Z" />
<glyph unicode="&quot;" glyph-name="quotedbl" horiz-adv-x="353" d="M238 710L248 701Q240 670 212 598T161 483L128 469Q156 625 158 686L238 710ZM399 710L408 701Q399 670 371 598T321 483L289 469Q318 640 318 686L399 710Z" />
<glyph unicode="#" glyph-name="numbersign" horiz-adv-x="480" d="M487 457L475 395H383L343 259H425L413 197H325L273 20H231L282 197H174L122 20H80L131 197H37L50 259H150L190 395H99L112 457H209L255 612H297L251 457H359L405 612H447L401 457H487ZM341 395H233L193
259H301L341 395Z" />
<glyph unicode="$" glyph-name="dollar" horiz-adv-x="480" d="M460 452L431 449Q423 566 340 584L297 361L318 347Q375 311 405 275T435 184Q435 104 375 56T228 4L212 -80H175L192 4Q138 8 98 26T40 64Q40 136 38 202L66 205Q70 178 78 154T102 103T142 60T199
38L245 285L225 298Q111 364 111 452Q111 528 169 573T310 619L325 695H362L347 618Q396 616 465 580Q464 568 460 452ZM264 378L304 587Q249 586 220 555T190 482Q190 424 264 378ZM278 268L235 37Q289 41 319 74T349 155Q349 191 333 216T278 268Z" />
<glyph unicode="%" glyph-name="percent" horiz-adv-x="762" d="M667 629L169 -29L141 -4L638 653L667 629ZM385 498Q385 416 334 345T205 274Q150 274 121 313T92 411Q92 493 143 564T271 635Q327 635 356 596T385 498ZM313 526Q313 604 267 604Q242 604 221
580T189 521T171 453T165 393Q165 305 211 305Q237 305 258 331T290 395T307 467T313 526ZM718 212Q718 130 667 59T538 -12Q482 -12 454 27T425 125Q425 207 476 278T604 349Q660 349 689 310T718 212ZM646 239Q646 318 600 318Q567 318 542 277T507 190T497 106Q497
19 543 19Q570 19 591 45T623 109T640 181T646 239Z" />
<glyph unicode="&amp;" glyph-name="ampersand" horiz-adv-x="764" d="M723 410H755Q758 382 758 349Q758 230 702 230Q684 230 655 251Q649 255 627 271T593 295Q559 169 496 97Q403 -12 275 -12Q185 -12 125 48T65 214Q65 328 147 414Q216 483 269 483Q297 483
313 463T329 411Q329 400 327 387L329 386Q450 502 450 590Q451 599 444 628Q441 642 454 656T485 671Q504 671 515 656T527 614Q527 531 408 414Q297 303 147 211Q159 142 206 103T318 64Q405 64 469 132T563 316Q510 352 482 352Q463 352 452 340T441 310Q441
284 451 266Q459 253 459 247Q458 238 446 232T421 225Q404 225 392 240T379 277Q379 324 439 369Q459 385 484 395T523 406Q570 406 676 325Q694 310 704 310Q722 310 723 410ZM230 431Q199 431 171 384T142 266Q142 253 143 247Q218 290 262 334Q268 356 268
371Q268 397 258 414T230 431Z" />
<glyph unicode="&apos;" glyph-name="quotesingle" horiz-adv-x="194" d="M238 710L248 701Q240 671 212 599T161 483L128 469Q155 616 158 686L238 710Z" />
<glyph unicode="(" glyph-name="parenleft" horiz-adv-x="343" d="M377 711L394 687Q283 613 217 468T151 158Q151 -42 235 -149L211 -169Q145 -115 112 -22T78 172Q78 353 160 498T377 711Z" />
<glyph unicode=")" glyph-name="parenright" horiz-adv-x="336" d="M142 691L166 711Q237 655 271 551T296 330Q289 167 210 32T0 -169L-17 -145Q90 -72 153 62T222 346Q231 445 211 540T142 691Z" />
<glyph unicode="*" glyph-name="asterisk" horiz-adv-x="398" d="M437 509V482L302 464L333 325L309 315L246 449L119 380L104 404L213 491L113 601L131 622L247 534L313 665L339 656L303 518L437 509Z" />
<glyph unicode="+" glyph-name="plus" horiz-adv-x="598" d="M552 228H343V0H283V228H73V281H283V487H343V281H552V228Z" />
<glyph unicode="," glyph-name="comma" horiz-adv-x="240" d="M7 -115L-4 -86Q84 -48 85 7Q86 52 39 67Q29 70 30 82Q31 104 46 118T82 133Q114 133 135 103T155 33Q153 -23 110 -60T7 -115Z" />
<glyph unicode="-" glyph-name="hyphen" horiz-adv-x="335" d="M300 255L282 197H48L66 255H300Z" />
<glyph unicode="." glyph-name="period" horiz-adv-x="240" d="M91 -12Q68 -12 54 3T39 43Q39 72 56 90T101 109Q123 109 137 93T152 53Q152 23 134 6T91 -12Z" />
<glyph unicode="/" glyph-name="slash" horiz-adv-x="322" d="M361 664L41 -45H-14L305 664H361Z" />
<glyph unicode="0" glyph-name="zero" horiz-adv-x="480" d="M322 635Q366 635 398 615T447 561T471 486T476 399Q474 335 457 267T408 134T324 29T207 -12Q122 -12 84 57T50 231Q52 293 70 360T120 491T205 594T322 635ZM316 601Q275 601 241 560T187 455T156
327T142 204Q134 22 213 22Q253 22 286 67T339 179T370 311T384 430Q392 601 316 601Z" />
<glyph unicode="1" glyph-name="one" horiz-adv-x="480" d="M379 635L280 123Q268 61 280 47T364 27L357 0H76L82 27Q149 34 164 47T192 123L264 489Q273 534 265 545T212 556L178 557L184 583Q290 598 379 635Z" />
<glyph unicode="2" glyph-name="two" horiz-adv-x="480" d="M110 498L174 580Q234 635 308 635Q380 635 423 593T466 477Q466 447 456 418T431 366T386 312T333 261T266 203L123 78H298Q341 78 360 88T409 141L435 129Q419 95 379 0H3L5 22Q126 124 202 196Q285
277 329 338T373 460Q373 508 348 537T269 566Q200 566 132 477L110 498Z" />
<glyph unicode="3" glyph-name="three" horiz-adv-x="480" d="M127 519L176 581Q232 635 307 635Q368 635 405 600T442 513Q442 460 395 422Q361 396 318 371V369Q372 354 404 317T436 226Q436 126 325 50Q283 20 234 4T147 -12Q86 -12 49 23Q25 44 28 65Q31 85
57 102Q68 111 78 101Q138 39 203 39Q263 39 301 79T340 198Q340 256 307 287T226 318Q201 318 169 310L163 338Q351 391 351 491Q351 530 329 552T268 574Q210 574 148 497L127 519Z" />
<glyph unicode="4" glyph-name="four" horiz-adv-x="480" d="M466 223L457 178H363L352 114Q342 59 352 46T420 27L414 0H154L160 27Q224 32 239 45T265 114L278 178H21L28 207Q248 476 402 629H450L372 223H466ZM351 527H348Q226 394 94 223H286L351 527Z" />
<glyph unicode="5" glyph-name="five" horiz-adv-x="480" d="M473 623L442 545H209L154 367Q230 391 259 391Q339 391 386 345T433 232Q433 175 400 125T306 37Q226 -12 152 -12Q118 -12 88 -1T42 27Q22 47 25 66Q29 89 54 104Q65 111 76 101Q135 39 205 39Q266
39 302 80T339 196Q339 261 304 298T199 336Q155 336 110 320L103 329L185 623H473Z" />
<glyph unicode="6" glyph-name="six" horiz-adv-x="480" d="M500 641L507 609Q458 601 396 576Q231 506 170 354L171 352L233 382Q269 399 294 399Q366 399 409 352T453 226Q453 127 386 58T226 -12Q143 -12 94 46T45 197Q45 342 134 453T370 611Q429 630 500
641ZM248 344Q206 344 158 314Q138 262 138 192Q138 121 164 72T241 22Q294 22 327 76T360 209Q360 266 334 305T248 344Z" />
<glyph unicode="7" glyph-name="seven" horiz-adv-x="480" d="M524 623L531 611L150 -1L64 -12L58 0Q292 290 447 545H236Q190 545 172 533T128 470L100 479Q119 527 144 623H524Z" />
<glyph unicode="8" glyph-name="eight" horiz-adv-x="480" d="M314 635Q376 635 421 597T466 496Q466 440 421 402Q368 364 330 339Q386 297 413 262T441 176Q441 98 375 43T219 -12Q144 -12 91 29T38 144Q38 203 93 249Q126 275 203 323Q121 386 121 463Q121
534 178 584T314 635ZM300 601Q257 601 230 570T203 495Q203 463 218 437T251 396T294 363Q299 360 302 358Q385 414 385 498Q385 544 362 572T300 601ZM233 22Q284 22 317 57T350 150Q350 196 322 228T231 303Q127 238 127 144Q127 91 155 57T233 22Z" />
<glyph unicode="9" glyph-name="nine" horiz-adv-x="480" d="M308 635Q394 635 438 574T483 425Q483 282 398 172T183 14Q104 -15 46 -15L42 15Q146 35 235 106T365 287L295 254Q264 240 239 240Q175 240 131 286T87 407Q87 498 153 566T308 635ZM297 601Q247
601 214 551T180 431Q180 370 208 334T291 298Q338 298 373 324Q392 377 392 445Q392 468 389 490T377 540T348 584T297 601Z" />
<glyph unicode=":" glyph-name="colon" horiz-adv-x="240" d="M136 293Q113 293 99 308T84 348Q84 377 101 395T145 414Q167 414 181 399T196 358Q196 329 178 311T136 293ZM91 -12Q67 -12 53 3T39 43Q39 72 56 90T100 109Q123 109 137 93T152 52Q152 23 134 6T91 -12Z" />
<glyph unicode=";" glyph-name="semicolon" horiz-adv-x="240" d="M133 293Q110 293 96 309T81 349Q81 378 98 396T142 414Q165 414 179 399T194 358Q194 329 176 311T133 293ZM7 -115L-5 -86Q85 -49 85 6Q85 53 39 67Q29 70 30 82Q31 104 46 118T82 133Q114 133
135 104T156 38Q156 -21 113 -59T7 -115Z" />
<glyph unicode="&lt;" glyph-name="less" horiz-adv-x="597" d="M519 0L66 228V279L519 507V449L127 254V252L519 58V0Z" />
<glyph unicode="=" glyph-name="equal" horiz-adv-x="598" d="M554 320H68V372H554V320ZM554 137H68V189H554V137Z" />
<glyph unicode="&gt;" glyph-name="greater" horiz-adv-x="597" d="M553 228L101 0V58L492 252V254L101 449V507L553 279V228Z" />
<glyph unicode="?" glyph-name="question" horiz-adv-x="358" d="M204 213L183 193Q150 210 122 242T94 310Q94 347 123 377T202 438Q287 488 309 513Q326 532 326 550Q326 571 312 584T273 597Q244 597 218 584T175 558T154 545Q142 545 130 559T118 591Q118
611 146 630Q192 664 239 664Q294 664 334 620T375 516Q375 446 307 404Q297 398 279 386Q235 358 217 345T185 315T171 281Q171 248 204 213ZM134 -12Q110 -12 95 4T79 46Q79 77 97 96T144 116Q168 116 183 99T199 56Q199 25 180 7T134 -12Z" />
<glyph unicode="@" glyph-name="at" horiz-adv-x="741" d="M542 -21L552 -50Q460 -101 353 -101Q228 -101 141 -21T54 199Q54 313 111 401T255 534T440 578Q569 578 643 504T716 320Q716 217 646 144T472 71Q437 71 428 91T429 143L441 194L439 195Q411 155 358
113T273 71Q253 71 239 94T224 155Q224 203 245 255T307 346Q382 416 470 417Q471 417 523 409Q543 405 555 405Q523 278 501 175Q494 141 497 127T516 114Q571 115 619 169T668 320Q668 422 602 480T432 538Q295 538 208 446T121 209Q121 160 135 115T178 31T262
-31T387 -55Q472 -55 542 -21ZM428 378Q391 378 363 347Q340 322 322 273T302 176Q302 134 323 134Q340 134 375 165T452 258Q467 303 481 367Q463 378 428 378Z" />
<glyph unicode="A" glyph-name="A" horiz-adv-x="665" d="M622 28L615 0H372L380 28Q429 33 440 44T446 90Q444 104 423 232H217Q180 163 150 100Q129 57 138 45T205 28L198 0H-19L-11 28Q36 35 55 50T109 128L407 655L442 664L468 498Q497 320 533 119Q543 62
556 48T622 28ZM416 276L377 528H375L239 276H416Z" />
<glyph unicode="B" glyph-name="B" horiz-adv-x="587" d="M129 649H368Q561 649 561 511Q561 447 516 409T397 355V353Q461 340 502 301T544 197Q544 143 513 102T430 35Q357 0 224 0H6L13 28Q70 33 85 47T113 121L193 534Q204 590 194 603T123 621L129 649ZM249
367H295Q376 367 419 405T463 510Q463 566 430 591T349 616Q318 616 304 606Q292 597 285 561L249 367ZM242 333L202 124Q192 71 210 53T277 35Q347 35 393 81T440 202Q440 271 398 302T287 333H242Z" />
<glyph unicode="C" glyph-name="C" horiz-adv-x="638" d="M584 177L611 163Q573 72 532 10Q435 -15 359 -15Q229 -15 147 60T65 272Q65 447 185 556T483 665Q565 665 655 633Q651 523 647 477L616 474Q610 560 573 594T461 628Q336 628 254 524T172 275Q172 163
224 92T369 21Q436 21 485 60T584 177Z" />
<glyph unicode="D" glyph-name="D" horiz-adv-x="712" d="M129 649H379Q532 649 617 583T702 377Q702 283 659 203T537 74Q419 0 228 0H8L15 28Q72 34 87 48T113 121L191 526Q202 586 192 600T122 621L129 649ZM287 554L207 131Q200 94 202 77T218 51Q240 37 286
37Q428 38 512 137T597 383Q597 493 538 553T371 615Q324 615 308 604Q295 596 287 554Z" />
<glyph unicode="E" glyph-name="E" horiz-adv-x="561" d="M127 649H566Q564 635 547 495L517 493Q515 561 503 582Q494 600 476 607T407 614H335Q309 614 302 608T290 573L249 359H340Q402 359 419 370T454 432H484L446 240H416Q418 296 407 307T332 319H241L208
144Q194 68 212 51Q229 36 310 36Q364 36 391 43T439 70Q468 97 507 165L536 155Q498 55 474 0H2L9 28Q69 33 85 47T113 121L191 528Q203 588 193 602T120 621L127 649Z" />
<glyph unicode="F" glyph-name="F" horiz-adv-x="530" d="M130 649H567Q564 614 549 496L519 493Q517 556 507 580Q499 599 480 606T410 614H334Q309 614 302 607T290 574L247 348H348Q411 348 427 359T465 420H495L456 226H427Q427 283 415 295T339 307H238L204
125Q193 63 206 48T287 28L280 0H10L16 28Q72 33 87 48T114 125L190 523Q202 588 193 601T123 621L130 649Z" />
<glyph unicode="G" glyph-name="G" horiz-adv-x="684" d="M657 476L626 473Q625 556 585 592T467 629Q338 629 256 526T173 277Q173 162 228 92T383 21Q476 21 490 91L509 183Q519 238 507 250T419 270L426 297H680L673 270Q631 264 620 252T599 183L583 101Q574
52 578 23Q571 21 533 11T476 -2T426 -10T366 -15Q231 -15 149 60T66 271Q66 444 185 554T491 665Q576 665 669 634Q662 561 657 476Z" />
<glyph unicode="H" glyph-name="H" horiz-adv-x="746" d="M792 649L785 621Q728 616 714 602T687 526L610 123Q599 62 609 48T680 28L674 0H412L418 28Q477 33 492 47T519 123L557 322H241L204 123Q192 61 203 47T275 28L268 0H11L18 28Q73 33 87 47T113 123L191
526Q203 588 192 602T119 621L126 649H382L375 621Q321 616 307 601T281 526L250 365H566L596 526Q608 587 598 601T529 621L535 649H792Z" />
<glyph unicode="I" glyph-name="I" horiz-adv-x="341" d="M386 649L380 621Q323 616 309 603T283 534L203 119Q192 61 203 47T276 28L270 0H7L14 28Q71 32 86 46T112 119L193 534Q203 589 192 602T118 621L125 649H386Z" />
<glyph unicode="J" glyph-name="J" horiz-adv-x="327" d="M382 649L376 621Q321 614 308 601T284 529L210 131Q192 34 160 -23T69 -113Q26 -140 -17 -145L-26 -113Q54 -91 84 -5Q102 44 123 150L194 529Q204 589 193 602T121 621L128 649H382Z" />
<glyph unicode="K" glyph-name="K" horiz-adv-x="658" d="M721 649L714 622Q660 614 634 603T561 554Q504 508 347 372Q427 233 523 97Q552 57 571 45T632 28L625 0H473Q362 171 292 290Q268 332 238 319L203 128Q191 63 201 48T270 28L264 0H11L19 28Q73 33 87
48T114 128L190 525Q202 587 192 601T123 621L130 649H380L374 621Q318 615 304 601T278 525L244 349Q280 361 319 393Q417 474 517 574Q539 596 537 604T509 617L481 621L488 649H721Z" />
<glyph unicode="L" glyph-name="L" horiz-adv-x="535" d="M487 169L516 158Q463 23 452 0H5L12 28Q69 32 84 46T111 118L192 533Q203 590 193 603T121 621L127 649H386L380 621Q321 616 307 603T282 533L203 122Q194 67 213 50Q229 36 301 36Q384 36 416 67Q452
103 487 169Z" />
<glyph unicode="M" glyph-name="M" horiz-adv-x="878" d="M910 649L903 621Q840 616 826 603T803 529Q782 392 749 136Q740 64 751 49T822 28L816 0H557L564 28Q620 34 634 49T659 136L724 551H721L396 4H372Q343 172 273 542H270L198 282Q159 137 152 91Q147
57 160 45T227 28L221 0H-5L2 28Q44 32 63 45T95 90Q115 140 165 308L223 507Q245 580 234 597T153 621L161 649H334L439 161L742 649H910Z" />
<glyph unicode="N" glyph-name="N" horiz-adv-x="705" d="M767 649L761 621Q717 619 701 606T674 558Q657 503 635 388L560 -8H526L232 518H229L178 258Q157 150 153 90Q151 56 168 44T238 28L232 0H0L7 28Q47 30 66 43T95 88Q110 134 137 260L187 498Q194 541
193 557T182 591Q173 607 156 613T98 621L105 649H256L545 149H548L593 388Q615 503 619 559Q622 594 605 606T532 621L540 649H767Z" />
<glyph unicode="O" glyph-name="O" horiz-adv-x="711" d="M431 665Q551 665 625 585T699 378Q699 215 595 100T333 -15Q214 -15 140 63T66 269Q66 373 113 463T244 609T431 665ZM424 629Q352 629 293 573T202 432T170 257Q170 152 213 87T341 21Q417 21 476 79T565
221T594 391Q594 498 553 563T424 629Z" />
<glyph unicode="P" glyph-name="P" horiz-adv-x="561" d="M131 649H362Q577 649 577 480Q577 382 505 326T338 262Q325 261 301 261L233 282L203 125Q191 63 203 49T285 28L279 0H6L13 28Q70 34 85 48T113 125L193 528Q204 587 194 601T124 621L131 649ZM286 560L240
315Q274 302 311 302Q375 302 427 349T479 485Q479 548 446 582T352 616Q326 616 310 608Q294 601 286 560Z" />
<glyph unicode="Q" glyph-name="Q" horiz-adv-x="711" d="M667 -139L659 -161Q590 -161 536 -146Q462 -124 321 -23L307 -13Q198 -5 132 71T66 267Q66 428 171 546T431 665Q551 665 625 585T699 377Q699 245 625 140T432 1L445 -8Q547 -82 667 -139ZM302 24L374
42Q379 39 387 33T399 25Q484 50 539 160T594 390Q594 497 553 563T423 629Q352 629 293 573T202 432T170 257Q170 166 204 103T302 24Z" />
<glyph unicode="R" glyph-name="R" horiz-adv-x="605" d="M591 18L583 -8H571Q498 -5 464 16T401 90Q374 140 334 238Q323 266 310 275T271 284H232L204 128Q192 63 202 48T273 28L267 0H8L15 28Q72 34 86 48T114 127L192 529Q203 590 194 603T124 621L130 649H354Q453
649 498 618Q560 578 560 495Q560 424 516 376T404 305Q431 236 463 171Q500 99 525 65Q551 31 591 18ZM239 317H282Q349 317 387 342Q421 365 441 403T461 487Q461 550 431 583T348 616Q317 616 304 606Q293 598 286 562L239 317Z" />
<glyph unicode="S" glyph-name="S" horiz-adv-x="472" d="M37 197L66 200Q72 157 87 120T139 51T227 20Q281 20 313 54T345 146Q345 185 323 217T255 285L226 307Q203 325 187 340T152 377T123 427T113 484Q113 563 170 614T318 665Q366 665 417 648Q428 644 443
638T460 631Q460 630 457 489L427 486Q411 631 307 631Q258 631 228 597T198 517Q198 478 220 449T288 385L318 363Q376 320 406 278T436 178Q436 92 371 39T214 -15Q158 -15 109 4T40 47Q40 57 39 107T37 197Z" />
<glyph unicode="T" glyph-name="T" horiz-adv-x="606" d="M638 674H661Q651 623 637 496L605 494Q605 560 593 585Q586 602 565 608T489 614H430L337 121Q326 62 339 47T420 28L414 0H133L140 28Q202 32 218 47T246 121L340 614H290Q231 614 208 608T170 584Q148
558 120 494H89Q121 601 136 674H159Q166 658 175 654T206 649H586Q604 649 613 654T638 674Z" />
<glyph unicode="U" glyph-name="U" horiz-adv-x="707" d="M776 649L769 621Q723 619 707 608T680 565Q664 511 640 389L624 308Q589 127 508 51Q436 -15 335 -15Q237 -15 179 39Q102 111 134 281L181 530Q192 589 182 602T112 621L119 649H374L368 621Q312 616
298 603T272 530L226 286Q202 160 241 100T361 40Q449 40 502 106T583 316L598 389Q621 511 624 566Q625 596 608 607T535 621L542 649H776Z" />
<glyph unicode="V" glyph-name="V" horiz-adv-x="676" d="M750 649L743 621Q695 616 676 601T618 526Q526 379 315 -10H282Q245 219 185 533Q174 589 160 602T98 621L106 649H342L335 621L309 617Q280 613 274 604T271 567Q274 545 349 129H351Q537 463 577 547Q596
588 591 600T552 617L523 621L531 649H750Z" />
<glyph unicode="W" glyph-name="W" horiz-adv-x="950" d="M1010 649L1004 621Q955 614 938 601T891 527Q835 421 636 -10H603L522 477H519L284 -10H250L189 526Q182 588 170 602T108 621L114 649H348L341 621L316 618Q286 613 279 602T276 551L319 145H321L553
638H585L667 143H669Q818 467 849 548Q865 589 859 601T814 618L789 621L795 649H1010Z" />
<glyph unicode="X" glyph-name="X" horiz-adv-x="642" d="M681 649L674 621Q623 616 603 606T545 555Q506 512 383 363L493 117Q518 60 536 47T611 28L604 0H345L351 28L381 32Q409 37 414 45T409 80Q388 132 320 289Q214 155 165 81Q149 57 152 47T186 32L209
28L203 0H-25L-18 28Q29 32 51 43T108 91Q174 163 302 325L207 544Q185 592 169 604T102 621L109 649H346L340 621L315 617Q290 612 286 606T288 579Q300 544 367 399Q444 492 501 573Q516 596 513 604T484 617L456 621L462 649H681Z" />
<glyph unicode="Y" glyph-name="Y" horiz-adv-x="615" d="M690 649L682 621Q634 616 614 604T556 544Q510 486 395 322Q378 297 370 264L342 126Q329 63 341 49T422 28L415 0H139L146 28Q208 33 223 47T252 126L278 258Q285 287 273 318L188 548Q171 594 157 605T95
621L103 649H340L333 621L299 616Q275 612 271 604T273 573Q330 414 361 336Q472 492 517 568Q532 594 528 603T494 617L465 621L473 649H690Z" />
<glyph unicode="Z" glyph-name="Z" horiz-adv-x="591" d="M614 649L620 635L137 41Q183 36 287 36Q365 36 405 42T468 67Q501 95 543 178L572 165Q531 41 512 0H8L1 16L490 614H339Q269 614 244 607T202 579Q175 549 150 484L120 487Q146 582 162 674H183Q192
658 201 654T233 649H614Z" />
<glyph unicode="[" glyph-name="bracketleft" horiz-adv-x="343" d="M387 704L380 675Q303 667 287 655T259 580L140 -38Q128 -100 140 -112T231 -133L224 -162H50L216 704H387Z" />
<glyph unicode="\" glyph-name="backslash" horiz-adv-x="375" d="M327 -45H272L87 664H142L327 -45Z" />
<glyph unicode="]" glyph-name="bracketright" horiz-adv-x="343" d="M326 704L160 -162H-12L-5 -133Q73 -125 89 -113T117 -38L235 580Q240 604 242 616T241 639T235 655T216 664T188 670T144 675L151 704H326Z" />
<glyph unicode="^" glyph-name="asciicircum" horiz-adv-x="555" d="M506 211H443L289 556L134 211H75L267 623H314L506 211Z" />
<glyph unicode="_" glyph-name="underscore" horiz-adv-x="500" d="M500 -125H0V-75H500V-125Z" />
<glyph unicode="`" glyph-name="grave" horiz-adv-x="400" d="M323 500L293 491Q282 511 263 546T228 608T201 655L205 665Q213 669 242 674T283 678Q289 649 303 585T323 500Z" />
<glyph unicode="a" glyph-name="a" horiz-adv-x="496" d="M460 119L473 95Q434 47 389 18T321 -12Q283 -12 301 79L319 167H317Q264 92 194 34Q137 -12 98 -12Q74 -12 56 17T38 102Q38 177 70 251T156 371Q196 405 248 427T348 450Q372 450 410 443Q444 436 452
437L455 433Q420 296 386 110Q378 67 388 67Q395 67 417 83T460 119ZM156 57Q183 57 246 125T333 244Q347 293 366 391Q342 405 302 405T235 386Q187 350 159 274T130 121Q130 57 156 57Z" />
<glyph unicode="b" glyph-name="b" horiz-adv-x="489" d="M103 650L105 676Q141 680 176 688T233 703T260 710Q273 710 266 679Q229 531 179 303H181Q240 375 298 412T394 450Q428 450 447 420T467 338Q467 255 424 172T314 44Q232 -12 159 -12Q133 -12 110 0T76
32Q52 69 70 157L164 601Q170 635 165 642T132 650H103ZM211 34Q236 34 261 49Q305 76 340 155T376 320Q376 390 343 390Q317 390 266 348T170 242Q162 219 152 163Q139 94 157 64T211 34Z" />
<glyph unicode="c" glyph-name="c" horiz-adv-x="385" d="M339 123L354 100Q309 47 254 18T153 -12Q102 -12 73 26T43 135Q43 200 71 266T147 376Q180 406 226 428T309 450Q341 450 364 435T387 399Q389 369 353 350Q339 341 330 355Q296 402 254 402Q209 402
176 339Q134 262 134 158Q134 105 152 78T203 51Q237 51 275 74T339 123Z" />
<glyph unicode="d" glyph-name="d" horiz-adv-x="513" d="M476 115L490 91Q452 45 407 17T338 -12Q299 -12 318 82L335 163H333Q285 97 205 33Q146 -12 108 -12Q79 -12 59 19T39 109Q39 181 70 254T156 373Q191 404 244 427T333 450Q364 450 392 440L424 599Q431
632 425 640T385 649H355L358 675Q396 679 432 688T490 703T517 710Q531 710 524 681Q450 361 402 101Q395 66 406 66Q425 66 476 115ZM161 57Q195 57 257 121T348 237L379 380Q351 406 300 406Q262 406 235 387Q189 353 160 275T131 129Q131 94 139 76T161 57Z"
/>
<glyph unicode="e" glyph-name="e" horiz-adv-x="403" d="M353 127L370 104Q263 -12 155 -12Q109 -12 76 21T42 135Q42 208 73 278T162 392Q236 450 305 450Q346 450 370 427T395 369Q395 259 133 191Q131 179 131 160Q131 114 148 83T207 51Q274 51 353 127ZM266
408Q244 408 227 397Q156 353 137 223Q314 272 314 354Q314 379 301 393T266 408Z" />
<glyph unicode="f" glyph-name="f" horiz-adv-x="275" d="M78 434H140Q167 566 226 630Q261 668 301 689T373 710Q399 710 417 696T435 666Q434 641 408 622Q393 612 382 623Q347 661 319 661Q290 661 269 614T226 434H340L319 401L218 392Q188 216 166 108Q140
-14 110 -81T34 -194Q-26 -255 -78 -255Q-101 -255 -121 -242T-142 -211Q-142 -189 -113 -166Q-102 -157 -93 -166Q-64 -193 -27 -193Q-2 -193 14 -172Q45 -130 79 71L132 393H50L47 404L78 434Z" />
<glyph unicode="g" glyph-name="g" horiz-adv-x="425" d="M476 446L484 426Q446 385 410 377Q396 375 386 374Q393 351 393 321Q393 230 319 170Q267 128 186 111Q169 98 167 82Q167 62 239 25Q312 -13 344 -44T376 -109Q376 -168 296 -211T135 -255Q60 -255 7
-222T-46 -143Q-45 -111 -4 -77T121 -1Q82 23 84 49Q84 75 148 112Q58 132 58 233Q58 281 81 325T143 400Q207 450 274 450Q329 450 361 422Q440 423 476 446ZM203 151Q244 151 278 198T312 321Q312 363 296 388T249 414Q209 414 178 366Q143 312 143 238Q143 197
159 174T203 151ZM177 -212Q230 -212 263 -191T296 -140Q296 -104 226 -62Q166 -28 148 -19Q45 -70 45 -125Q45 -162 85 -187T177 -212Z" />
<glyph unicode="h" glyph-name="h" horiz-adv-x="515" d="M470 110L484 86Q443 41 401 15T334 -12Q293 -12 315 88L368 316Q383 384 359 384Q327 384 261 321T158 194Q140 121 120 7Q79 1 41 -12L34 -4Q114 362 158 593Q165 632 160 640T123 649H96L100 675Q136
678 171 687T227 703T253 710Q266 710 258 676L170 266H172Q255 376 351 428Q390 450 421 450Q480 450 450 319L400 103Q392 66 403 66Q410 66 431 79T470 110Z" />
<glyph unicode="i" glyph-name="i" horiz-adv-x="277" d="M223 643Q244 643 255 630T266 595Q267 571 250 553T209 534Q190 534 178 547T165 581Q165 604 181 623T223 643ZM229 112L243 90Q212 53 165 21T92 -12Q51 -12 75 88L136 338Q143 371 135 371Q119 371
68 329L56 353Q98 394 144 422T213 450Q245 450 225 368L158 100Q150 66 160 66Q179 66 229 112Z" />
<glyph unicode="j" glyph-name="j" horiz-adv-x="270" d="M218 649Q238 649 249 636T261 602Q261 577 245 559T205 541Q185 541 173 554T159 588Q159 611 175 630T218 649ZM66 321L53 345Q97 390 144 420T216 450Q233 450 235 425T226 344Q214 281 170 63Q132
-119 47 -194Q-21 -255 -60 -255Q-76 -255 -90 -245T-105 -221Q-105 -197 -79 -175Q-67 -165 -57 -171Q-25 -190 -5 -190Q33 -190 56 -90Q72 -25 137 313Q140 330 142 340T144 357T143 366T138 368Q131 368 108 353T66 321Z" />
<glyph unicode="k" glyph-name="k" horiz-adv-x="473" d="M442 102L460 80Q399 -12 344 -12Q326 -12 311 2T277 55Q239 138 204 238Q162 195 153 178Q131 81 118 8Q75 0 38 -12L32 -6Q120 379 166 602Q172 632 166 639T130 648L100 649L105 675Q142 679 177 688T233
703T259 710Q271 710 264 681L165 241H167Q192 271 251 330Q369 450 425 450Q444 450 456 441T468 418Q468 396 447 375Q438 366 431 369Q415 378 391 378Q334 378 266 300Q291 218 342 117Q371 57 386 57Q403 57 442 102Z" />
<glyph unicode="l" glyph-name="l" horiz-adv-x="254" d="M219 118L234 94Q195 49 149 19T77 -12Q34 -12 60 111L163 596Q170 630 163 639T122 649L95 650L99 675Q134 679 170 688T227 703T253 710Q266 710 260 679L139 101Q132 65 142 65Q151 65 175 81T219 118Z" />
<glyph unicode="m" glyph-name="m" horiz-adv-x="789" d="M739 111L752 86Q713 43 671 16T606 -12Q563 -12 588 90L642 320Q657 383 633 383Q602 383 535 311T438 183Q416 99 399 7Q354 1 318 -12L311 -5Q370 232 383 293Q393 342 392 362T376 383Q344 383 276
309T182 182Q166 130 140 7Q98 1 61 -12L53 -4Q92 141 136 333Q144 374 135 374Q118 374 67 327L55 352Q96 397 137 423T201 450Q240 450 211 328L194 259H196Q280 375 371 429Q407 450 435 450Q494 450 461 299L452 261H454Q539 379 633 430Q669 450 695 450Q753
450 719 304L670 99Q662 66 673 66Q680 66 700 79T739 111Z" />
<glyph unicode="n" glyph-name="n" horiz-adv-x="535" d="M485 112L500 87Q457 40 417 14T353 -12Q311 -12 336 93L388 312Q404 382 381 382Q351 382 285 314T180 181Q152 65 140 8Q97 2 61 -12L54 -4Q93 146 135 333Q144 373 133 373Q126 373 107 360T69 328L56
354Q98 398 138 424T202 450Q239 450 212 336L193 256H195Q275 366 372 426Q412 450 441 450Q501 450 466 305L419 102Q410 66 421 66Q428 66 447 79T485 112Z" />
<glyph unicode="o" glyph-name="o" horiz-adv-x="474" d="M180 -12Q111 -12 78 33T45 145Q45 238 88 310T196 417Q257 450 309 450Q373 450 408 409T444 293Q444 226 416 160T337 51Q262 -12 180 -12ZM217 29Q233 29 248 35Q289 52 321 125T352 293Q352 351 331
381T275 411Q257 411 239 403Q204 386 171 319T137 148Q137 93 158 61T217 29Z" />
<glyph unicode="p" glyph-name="p" horiz-adv-x="491" d="M245 515L227 438Q270 450 320 450Q395 450 429 415T464 310Q464 199 379 104Q343 62 292 31T192 -12Q159 -12 135 -2L107 -140Q99 -182 106 -194T151 -210L175 -212L171 -239L-67 -251L-62 -225Q-16 -216
-1 -202T24 -142L135 375Q96 363 54 339L47 366Q86 393 143 415L154 460Q182 493 235 521L245 515ZM218 398L150 66Q159 53 176 43T210 33Q263 33 317 118T372 296Q372 405 272 405Q243 405 218 398Z" />
<glyph unicode="q" glyph-name="q" horiz-adv-x="489" d="M422 -213L417 -239L180 -251L185 -225L202 -221Q237 -213 249 -200T271 -141L333 159H331Q283 97 210 39Q147 -12 103 -12Q75 -12 56 20T37 103Q37 179 69 250T154 367Q186 395 230 416T306 444Q336 450
360 450Q399 450 450 435L467 431Q440 321 420 212L356 -135Q348 -182 355 -193T397 -210L422 -213ZM307 405Q266 405 236 383Q188 347 159 273T129 129Q129 95 138 77T160 59Q192 59 249 114T340 223Q364 319 375 390Q350 405 307 405Z" />
<glyph unicode="r" glyph-name="r" horiz-adv-x="370" d="M61 327L47 351Q85 393 127 421T191 450Q229 450 205 334L195 285H198Q236 359 276 404T346 450Q376 450 390 424Q404 403 389 378Q377 358 361 347Q348 336 338 346Q322 364 303 364T255 323Q209 259
186 201Q168 124 146 7Q104 0 68 -12L60 -4Q107 186 132 329Q140 373 130 373Q123 373 102 359T61 327Z" />
<glyph unicode="s" glyph-name="s" horiz-adv-x="340" d="M114 -12Q78 -12 45 11T10 62Q10 88 41 106Q58 115 67 103Q111 40 167 40Q194 40 211 56T229 96Q229 132 169 178Q140 200 125 214T95 252T80 302Q80 356 134 401Q158 422 190 436T248 450Q281 450 304
432T328 392Q328 365 301 348Q287 340 278 352Q241 400 198 400Q176 400 162 385T147 347T163 305T213 260Q259 226 279 200T299 141Q299 84 239 36T114 -12Z" />
<glyph unicode="t" glyph-name="t" horiz-adv-x="310" d="M343 434L316 398L218 393L161 122Q149 62 167 62Q179 62 207 81T255 119L269 96Q238 59 189 24T104 -12Q90 -12 82 0T71 41T80 122L138 393H65L62 402L87 434H147L170 528L253 593L263 586L228 434H343Z" />
<glyph unicode="u" glyph-name="u" horiz-adv-x="535" d="M495 116L509 92Q471 47 427 18T359 -12Q317 -12 341 93Q349 124 359 177H357Q283 75 198 17Q157 -12 119 -12Q55 -12 85 119L137 340Q145 375 135 375Q122 375 67 329L55 355Q98 397 141 423T207 450Q225
450 228 431T220 360L166 126Q151 60 177 60Q214 60 278 129T374 257Q376 265 389 326T411 424L488 450H499Q448 242 422 106Q414 66 425 66Q432 66 454 81T495 116Z" />
<glyph unicode="v" glyph-name="v" horiz-adv-x="450" d="M227 93H229Q377 280 376 349Q376 377 366 393Q360 403 365 418Q377 450 411 450Q430 450 443 434T456 392Q456 344 394 258Q295 120 185 -12H156Q148 160 135 300Q129 373 117 373Q103 373 59 322L42
345Q73 388 108 419T167 450Q205 450 213 337Q226 111 227 93Z" />
<glyph unicode="w" glyph-name="w" horiz-adv-x="672" d="M463 97H465Q599 281 600 346Q600 371 589 393Q582 406 589 419Q602 450 632 450Q652 450 665 434T677 391Q677 354 637 287Q593 217 425 -12H394Q380 154 364 292H362L176 -12H147Q146 119 135 310Q132
373 120 373Q109 373 61 324L45 345Q79 390 115 420T176 450Q212 450 215 347Q219 187 218 121H220Q355 351 402 435H428Q435 371 447 254T463 97Z" />
<glyph unicode="x" glyph-name="x" horiz-adv-x="475" d="M85 321L67 342Q142 450 191 450Q210 450 223 427T256 343L273 289Q336 379 372 414T441 450Q461 450 473 437T484 405Q484 387 470 373T443 358Q436 358 427 367Q418 379 404 379Q384 379 348 334Q308
288 285 254L318 148Q345 62 366 62Q388 62 437 120L455 99Q384 -12 324 -12Q284 -12 255 81L226 174Q159 69 121 29T46 -12Q26 -12 13 2T-1 38Q0 57 13 72T41 87Q50 87 58 77T81 67Q117 67 215 212L182 314Q163 377 148 377Q130 377 85 321Z" />
<glyph unicode="y" glyph-name="y" horiz-adv-x="447" d="M245 79H247Q377 275 377 347Q377 366 365 395Q360 407 367 422Q381 450 411 450Q429 450 441 435T453 393Q455 350 417 286Q347 160 240 10Q132 -145 58 -227L-51 -255L-59 -232Q77 -143 174 -14Q172
117 142 314Q133 373 121 373Q114 373 98 357T64 316L46 340Q75 385 109 417T169 450Q210 450 223 329Q237 223 245 79Z" />
<glyph unicode="z" glyph-name="z" horiz-adv-x="417" d="M424 464L444 442Q424 416 383 372Q333 316 118 98Q147 99 195 82Q263 58 283 58Q327 58 384 143L408 125Q368 44 335 12T267 -21Q234 -21 134 28Q91 48 69 33Q52 22 38 -1Q31 -11 25 -9Q15 -5 13 6T21
40T61 94Q87 121 186 220T337 373Q311 367 274 370Q216 375 183 376Q150 376 130 356T83 292L57 306Q76 350 99 389Q137 448 174 448Q205 448 277 436Q330 426 361 426Q389 426 424 464Z" />
<glyph unicode="{" glyph-name="braceleft" horiz-adv-x="343" d="M387 710L384 682Q335 676 315 653T287 591Q281 559 277 497Q271 408 267 387Q249 291 164 273L163 269Q227 254 227 186Q227 165 222 143T206 89T191 45Q164 -51 164 -76Q164 -130 230 -140L223
-168Q98 -168 97 -73Q97 -38 129 79Q156 170 156 196Q156 250 83 256L90 286Q120 288 140 296T171 320T184 346T192 374Q194 384 203 463Q209 536 219 586Q243 710 387 710Z" />
<glyph unicode="|" glyph-name="bar" horiz-adv-x="245" d="M171 -250H105V750H171V-250Z" />
<glyph unicode="}" glyph-name="braceright" horiz-adv-x="343" d="M297 286L290 256Q260 254 240 246T210 222T197 196T189 168Q186 150 179 79Q172 4 162 -44Q138 -168 -7 -168L-3 -139Q45 -132 66 -110T94 -51Q100 -18 104 45Q110 132 114 154Q133 251 216
269V273Q149 289 155 372Q156 388 161 408T176 458T189 497Q213 581 214 603Q219 671 150 682L157 710Q181 710 202 706T243 690T274 657T282 601Q281 567 251 463Q227 380 225 359Q222 330 238 310T297 286Z" />
<glyph unicode="~" glyph-name="asciitilde" horiz-adv-x="566" d="M503 300L541 279Q507 165 413 165Q363 165 287 211Q234 243 197 243Q138 243 107 158L70 185Q114 294 202 294Q254 294 316 257Q384 218 419 218Q448 218 467 237T503 300Z" />
</font>
</defs>
</svg>
